<svg height="512" viewBox="0 0 512 512" width="512" xmlns="http://www.w3.org/2000/svg"><g id="flat"><path d="m256 56a8 8 0 0 1 -8-8v-24a8 8 0 0 1 16 0v24a8 8 0 0 1 -8 8z" fill="#97661d"/><path d="m488 224a113.072 113.072 0 0 0 -130.564-3.624l-5.436 3.624-45.433-22.716a113.067 113.067 0 0 0 -101.134 0l-45.433 22.716-5.436-3.624a113.072 113.072 0 0 0 -130.564 3.624 226.111 226.111 0 0 1 220.488-176h23.024a226.111 226.111 0 0 1 220.488 176z" fill="#fbb540"/><path d="m256 384c-4.418 0-8-3.869-8-8.64v-198.72c0-4.771 3.582-8.64 8-8.64s8 3.869 8 8.64v198.72c0 4.771-3.582 8.64-8 8.64z" fill="#97661d"/><path d="m304 432v8a16 16 0 0 1 -16 16 16 16 0 0 1 -16-16v-64h-32v64a48 48 0 0 0 48 48 48 48 0 0 0 48-48v-8a16 16 0 0 0 -16-16 16 16 0 0 0 -16 16z" fill="#683b0d"/><path d="m240 376h32v32h-32z" fill="#48351b"/><g fill="#0296e5"><path d="m160 296-14.311 28.622a15.994 15.994 0 0 0 -1.689 7.155v2.334a16 16 0 0 0 8.845 14.311 15.993 15.993 0 0 0 14.31 0 16 16 0 0 0 8.845-14.311v-2.334a15.994 15.994 0 0 0 -1.689-7.155z"/><path d="m352 256-14.311 28.622a15.994 15.994 0 0 0 -1.689 7.155v2.334a16 16 0 0 0 8.845 14.311 15.993 15.993 0 0 0 14.31 0 16 16 0 0 0 8.845-14.311v-2.334a15.994 15.994 0 0 0 -1.689-7.155z"/><path d="m392 321.889-14.311 28.621a16 16 0 0 0 -1.689 7.156v2.334a16 16 0 0 0 8.845 14.311 16 16 0 0 0 14.31 0 16 16 0 0 0 8.845-14.311v-2.334a16 16 0 0 0 -1.689-7.156z"/></g><path d="m352 224-45.43-22.72a113.124 113.124 0 0 0 -101.14 0l-45.43 22.72a204.95 204.95 0 0 1 73.75-157.46l22.25-18.54 22.25 18.54a204.966 204.966 0 0 1 73.75 157.46z" fill="#e82f3e"/></g></svg>